<svg width="53" height="53" viewBox="0 0 53 53" fill="none" xmlns="http://www.w3.org/2000/svg">
<path d="M26.5 53C41.1355 53 53 41.1355 53 26.5C53 11.8645 41.1355 0 26.5 0C11.8645 0 0 11.8645 0 26.5C0 41.1355 11.8645 53 26.5 53Z" fill="url(#paint0_linear)"/>
<path d="M34.2637 17.1836C34.2637 12.9027 30.7809 9.41992 26.5 9.41992C22.2191 9.41992 18.7363 12.9027 18.7363 17.1836C18.7363 21.4645 22.2191 24.9473 26.5 24.9473C30.7809 24.9473 34.2637 21.4645 34.2637 17.1836ZM26.5 24.9473C18.7944 24.9473 12.5254 31.2163 12.5254 38.9219V40.3771C12.5254 40.8185 12.7132 41.239 13.0419 41.5335C16.8242 44.9226 21.6037 46.7891 26.5 46.7891C31.3964 46.7891 36.1759 44.9226 39.9581 41.5335C40.2868 41.239 40.4746 40.8184 40.4746 40.3771V38.9219C40.4746 31.2163 34.2056 24.9473 26.5 24.9473Z" fill="url(#paint1_linear)"/>
<defs>
<linearGradient id="paint0_linear" x1="26.5" y1="53" x2="26.5" y2="0" gradientUnits="userSpaceOnUse">
<stop stop-color="#5558FF"/>
<stop offset="1" stop-color="#00C0FF"/>
</linearGradient>
<linearGradient id="paint1_linear" x1="26.5" y1="46.7891" x2="26.5" y2="9.41992" gradientUnits="userSpaceOnUse">
<stop stop-color="#ADDCFF"/>
<stop offset="0.5028" stop-color="#EAF6FF"/>
<stop offset="1" stop-color="#EAF6FF"/>
</linearGradient>
</defs>
</svg>
